<svg width="4" height="7" viewBox="0 0 4 7" fill="none" xmlns="http://www.w3.org/2000/svg">
<g opacity="0.2" clip-path="url(#clip0_35261_774)">
<path d="M3.79999 3.09995L0.799994 0.0999512C0.599994 -0.100049 0.299994 -0.100049 0.0999939 0.0999512C-6.10203e-06 0.299951 -6.10203e-06 0.699951 0.0999939 0.899951L2.69999 3.49995L0.0999939 6.09995C-6.10203e-06 6.29995 -6.10203e-06 6.59995 0.0999939 6.79995C0.199994 6.89995 0.399994 6.99995 0.499994 6.99995C0.599994 6.99995 0.799994 6.89995 0.899994 6.89995L3.89999 3.89995C3.89999 3.79995 3.99999 3.59995 3.99999 3.49995C3.99999 3.39995 3.89999 3.19995 3.79999 3.09995Z" fill="black"/>
</g>
<defs>
<clipPath id="clip0_35261_774">
<rect width="4" height="7" fill="white"/>
</clipPath>
</defs>
</svg>
