<svg xmlns="http://www.w3.org/2000/svg" width="108" height="66" fill="none"><path fill="#363636" d="M98.967 5.074c.752 1.441 1.209 3.08 1.209 4.818v21.102c0 4.616-3.092 8.527-7.246 9.9-1.325 3.987-3.778 7.854-8.051 10.432-8.676 5.231-31.124 4.837-31.198 4.837-.078 0-22.513.395-31.189-4.837-4.216-2.545-6.708-6.347-8.042-10.279-4.418-1.209-7.756-5.25-7.756-10.053v-21.1c0-1.689.427-3.283 1.139-4.694C4.17 6.11 0 7.918 0 11.434v29.983C0 51.668 11.839 65.85 53.657 65.85c41.82 0 53.657-14.182 53.657-24.433V11.434c-.001-3.684-4.576-5.494-8.347-6.36Z"/><path fill="#363636" d="M20.561 39.46h65.523c5.564 0 10.074-4.514 10.074-10.078V10.935C96.158 5.372 91.648.86 86.084.86H20.561c-5.564 0-10.075 4.511-10.075 10.075v18.447c0 5.564 4.511 10.077 10.075 10.077Zm63.134-28.992a1.57 1.57 0 1 1 0 3.139 1.57 1.57 0 0 1 0-3.139Zm0 4.04a1.569 1.569 0 1 1 0 3.137 1.569 1.569 0 0 1 0-3.138Zm0 4.038a1.568 1.568 0 1 1 .001 3.137 1.568 1.568 0 0 1-.001-3.137Zm0 3.827a1.57 1.57 0 1 1-.001 3.14 1.57 1.57 0 0 1 .001-3.14Zm0 4.04a1.568 1.568 0 1 1 .001 3.136 1.568 1.568 0 0 1-.001-3.137Zm-4.039-15.945c.867 0 1.568.703 1.568 1.57a1.568 1.568 0 1 1-3.136 0c0-.868.703-1.57 1.568-1.57Zm0 15.944a1.568 1.568 0 1 1 0 3.135 1.568 1.568 0 0 1 0-3.135Zm-4.037-15.944a1.57 1.57 0 1 1-.003 3.14 1.57 1.57 0 0 1 .003-3.14Zm0 4.04a1.57 1.57 0 1 1-.003 3.138 1.57 1.57 0 0 1 .003-3.139Zm0 4.038a1.569 1.569 0 1 1-.002 3.138 1.569 1.569 0 0 1 .002-3.138Zm0 3.827a1.568 1.568 0 1 1 0 3.138 1.568 1.568 0 0 1 0-3.138Zm0 4.04a1.569 1.569 0 1 1-.002 3.137 1.569 1.569 0 0 1 .002-3.138Zm-7.654-15.945c.867 0 1.568.703 1.568 1.57a1.568 1.568 0 1 1-3.136 0 1.568 1.568 0 0 1 1.568-1.57Zm0 8.078c.867 0 1.568.702 1.568 1.57a1.568 1.568 0 1 1-1.568-1.57Zm0 3.881a1.569 1.569 0 1 1-.002 3.136 1.569 1.569 0 0 1 .002-3.136Zm0 3.985a1.568 1.568 0 1 1 0 3.135 1.568 1.568 0 0 1 0-3.135Zm-4.039-15.944a1.57 1.57 0 1 1 0 3.14 1.57 1.57 0 0 1 0-3.14Zm0 8.078a1.57 1.57 0 1 1 .001 3.139 1.57 1.57 0 0 1-.001-3.139Zm0 7.866a1.57 1.57 0 1 1 .001 3.139 1.57 1.57 0 0 1-.001-3.139Zm-4.038-15.944a1.57 1.57 0 0 1 0 3.14 1.568 1.568 0 0 1-1.568-1.57 1.567 1.567 0 0 1 1.568-1.57Zm0 4.04a1.57 1.57 0 1 1-.001 3.135 1.57 1.57 0 0 1 .001-3.136Zm0 4.038a1.57 1.57 0 1 1-.001 3.14 1.57 1.57 0 0 1 .001-3.14Zm0 7.866a1.57 1.57 0 0 1 0 3.137 1.569 1.569 0 0 1 0-3.137Zm-8.29-15.944a1.57 1.57 0 1 1 0 3.139 1.57 1.57 0 0 1 0-3.139Zm0 4.04a1.569 1.569 0 1 1 0 3.137 1.569 1.569 0 0 1 0-3.138Zm0 4.038a1.568 1.568 0 1 1 .001 3.137 1.568 1.568 0 0 1-.001-3.137Zm0 3.881a1.568 1.568 0 1 1 0 3.137 1.569 1.569 0 0 1 0-3.137Zm0 3.985a1.568 1.568 0 1 1 .001 3.137 1.568 1.568 0 0 1-.001-3.137Zm-4.039-11.905a1.568 1.568 0 1 1 0 3.136 1.568 1.568 0 0 1 0-3.136Zm-8.502-.212a1.57 1.57 0 1 1-.001 3.135 1.57 1.57 0 0 1 .001-3.135Zm0 4.038a1.57 1.57 0 1 1-.003 3.141 1.57 1.57 0 0 1 .003-3.14Zm-4.039-8.078a1.57 1.57 0 1 1-.003 3.14 1.57 1.57 0 0 1 .003-3.14Zm0 4.04a1.57 1.57 0 1 1-.003 3.139 1.57 1.57 0 0 1 .003-3.139Zm0 4.038a1.57 1.57 0 1 1-.003 3.14 1.57 1.57 0 0 1 .003-3.14Zm0 4.04a1.569 1.569 0 1 1-.001 3.137 1.569 1.569 0 0 1 .001-3.137Zm-4.254-8.078a1.569 1.569 0 1 1 0 3.138 1.569 1.569 0 0 1 0-3.138Zm0 4.038a1.57 1.57 0 1 1 0 3.139 1.57 1.57 0 0 1 0-3.139Zm0 4.04a1.57 1.57 0 1 1-.001 3.14 1.57 1.57 0 0 1 .001-3.14Zm0 4.04a1.568 1.568 0 1 1 .001 3.136 1.568 1.568 0 0 1-.001-3.137ZM26.3 10.254a1.57 1.57 0 1 1 .002 3.136 1.57 1.57 0 0 1-.002-3.136Zm0 4.04a1.57 1.57 0 0 1 1.571 1.568 1.57 1.57 0 0 1-3.14 0 1.57 1.57 0 0 1 1.569-1.568Zm0 4.038a1.571 1.571 0 1 1 0 3.14 1.571 1.571 0 0 1 0-3.14Zm0 4.04a1.57 1.57 0 1 1 .003 3.135 1.57 1.57 0 0 1-.003-3.135Zm-4.037-8.078a1.57 1.57 0 1 1-.001 3.135 1.57 1.57 0 0 1 .001-3.135Zm0 4.038a1.57 1.57 0 0 1 0 3.14 1.57 1.57 0 0 1 0-3.14Z"/></svg>