<svg xmlns="http://www.w3.org/2000/svg" width="133" height="70" fill="none"><path fill="#363636" d="M12.052.258C6.507.745 1.838 1.85.575 2.93c-.722.617-.722.617-.232 1.157.644.72 3.713 1.645 7.247 2.236 3.998.668 12.51.693 13.724.051 1.212-.668 1.624-1.414 1.624-2.981 0-1.619-.62-2.416-2.218-2.853C19.274.154 14.942 0 12.052.258ZM25.774.488c-.129.283-.258 2.108-.258 4.112 0 4.061.156 3.778-2.192 3.933l-1.03.077-.259 5.089-1.186.283c-2.58.668-4 2.595-3.792 5.294.128 1.927 1.031 3.341 2.579 4.087 1.109.513 1.47.538 11.246.538 5.545 0 10.137.079 10.188.18.051.13-1.109 9.408-2.58 20.64-1.444 11.23-2.682 20.997-2.708 21.666-.051 1.617.827 2.62 2.348 2.62 1.237 0 2.012-.64 2.321-1.9.13-.514 1.496-10.334 3.018-21.822 1.522-11.463 2.863-20.869 2.94-20.869.104 0 1.084 1.413 2.193 3.136 2.94 4.626 2.4 4.317 7.636 4.317h4.358v5.63l-5.133.077c-4.72.077-5.21.127-5.881.615-1.573 1.157-1.625 1.415-1.625 10.977 0 9.534.026 9.792 1.522 11.05l.851.695h31.366l.85-.696c1.496-1.257 1.52-1.515 1.52-11.05 0-9.56-.05-9.819-1.622-10.976-.671-.488-1.161-.538-5.882-.615l-5.132-.077v-5.63h4.36c5.234 0 4.693.309 7.633-4.317 1.11-1.723 2.09-3.136 2.194-3.136.076 0 1.419 9.406 2.94 20.869 1.522 11.488 2.889 21.308 3.018 21.821.31 1.26 1.082 1.902 2.321 1.902 1.522 0 2.4-1.004 2.347-2.621-.026-.67-1.264-10.436-2.71-21.666-1.468-11.232-2.63-20.51-2.577-20.64.05-.101 4.641-.18 10.189-.18 9.776 0 10.136-.025 11.244-.538 1.548-.746 2.45-2.16 2.579-4.087.207-2.699-1.211-4.626-3.791-5.294l-1.187-.283-.256-5.089-1.032-.077c-2.347-.155-2.194.128-2.194-3.933 0-2.004-.128-3.829-.256-4.112-.207-.36-.543-.488-1.368-.488-.619 0-1.238.128-1.42.309-.206.205-.309 1.465-.309 3.932 0 2.467-.103 3.727-.31 3.932-.179.18-.901.308-1.649.308-1.626 0-1.651.052-1.651 3.11v2.287H32.48v-2.287c0-3.058-.025-3.11-1.65-3.11-.749 0-1.47-.129-1.65-.308-.208-.205-.31-1.465-.31-3.932 0-2.467-.104-3.727-.31-3.932C28.38.129 27.76 0 27.14 0c-.824 0-1.16.128-1.366.488Zm42.843 40.12c2.889.899 5.392 3.393 6.166 6.168.439 1.543.31 4.216-.284 5.784-.696 1.875-2.684 4.01-4.565 4.935-1.29.642-1.754.719-3.921.719s-2.631-.077-3.92-.719c-1.885-.926-3.87-3.06-4.567-4.935-.592-1.568-.722-4.24-.283-5.784.748-2.723 3.25-5.27 6.061-6.168 2.013-.642 3.3-.642 5.313 0Z"/><path fill="#363636" d="M63.794 44.438c-2.037.925-3.507 3.649-3.069 5.73.774 3.677 4.823 5.553 7.996 3.702 1.985-1.158 2.991-3.547 2.451-5.783-.568-2.39-2.734-4.138-5.16-4.138-.645 0-1.625.232-2.218.489ZM36.092.154c-3.92.668-4.513 1.131-4.513 3.444 0 1.825.464 2.416 2.268 2.956 1.55.462 7.172.514 10.5.128 6.86-.822 11.322-2.544 9.698-3.752-1.265-.9-4.902-1.876-9.054-2.39-2.475-.308-7.996-.54-8.9-.386ZM89.484.258C83.165.848 77.62 2.339 77.62 3.444c0 1.722 7.841 3.47 15.63 3.496 5.804 0 7.196-.643 7.196-3.342 0-1.824-.619-2.621-2.373-3.084C96.423.103 92.4 0 89.485.258ZM112.776.283c-1.78.231-3.018.77-3.43 1.491-.387.77-.31 2.904.154 3.572.928 1.31 1.652 1.465 7.068 1.465 3.662 0 5.802-.129 7.867-.488 3.534-.591 6.603-1.517 7.248-2.236.49-.54.49-.54-.233-1.157-1.341-1.13-5.958-2.185-11.916-2.672-3.481-.283-4.488-.283-6.758.025Z"/></svg>