<svg xmlns="http://www.w3.org/2000/svg" width="160" height="160" fill="none"><path fill="#363636" d="M119.821 47.011H40.33c-1.761 0-3.188 1.427-3.188 3.188v46.413c0 1.763 1.427 3.189 3.188 3.189h79.492c1.762 0 3.189-1.427 3.189-3.189V50.199c0-1.761-1.428-3.188-3.19-3.188ZM45.392 80.236h-.226c-1.762 0-3.189-1.429-3.189-3.189v-7.283c0-1.761 1.427-3.188 3.189-3.188h.226v13.66Zm61.231 15.172H50.341V51.402h56.282v44.006Zm8.777-17.856c-2.289 0-4.146-1.855-4.146-4.147 0-2.292 1.856-4.147 4.146-4.147 2.291 0 4.148 1.855 4.148 4.147 0 2.292-1.857 4.147-4.148 4.147ZM91.654 43H68.497v2.758h23.157V43ZM83.608 107.861v-2.973h8.046v-2.758H68.498v2.758h8.045v35.246c-2.139.938-3.635 3.072-3.635 5.559V160h14.335v-14.307c0-2.486-1.495-4.621-3.636-5.557v-27.99h4.796l5.051 1.213v-6.711l-5.051 1.213h-4.795Z"/></svg>