<svg width="60" height="60" viewBox="0 0 60 60" fill="none" xmlns="http://www.w3.org/2000/svg">
<circle cx="30" cy="30" r="29" stroke="black" stroke-opacity="0.6" stroke-width="2"/>
<path d="M13.5632 28.316V34H11.2672V24.06H13.0872L17.6932 29.912V24.06H19.9892V34H18.1132L13.5632 28.316ZM31.6763 31.984V34H24.6903V24.06H31.5503V26.076H26.9863V28.008H30.9063V29.87H26.9863V31.984H31.6763ZM39.1471 24.074H41.2611L42.2971 27.252L43.3331 24.074H45.4611L43.7671 28.694L44.7751 31.34L47.2671 24.06H49.7731L45.8951 34H43.9071L42.2971 30.108L40.7011 34H38.6991L34.8351 24.06H37.3271L39.8331 31.34L40.8131 28.694L39.1471 24.074Z" fill="black" fill-opacity="0.6"/>
</svg>
