<svg width="16" height="17" viewBox="0 0 16 17" fill="none" xmlns="http://www.w3.org/2000/svg">
<path d="M15.7 14.6889L12.6 11.5889C13.5 10.3889 14 8.98892 14 7.38892C14 3.48892 10.9 0.388916 7 0.388916C3.1 0.388916 0 3.48892 0 7.38892C0 11.2889 3.1 14.3889 7 14.3889C8.6 14.3889 10 13.8889 11.2 12.9889L14.3 16.0889C14.5 16.2889 14.7 16.3889 15 16.3889C15.6 16.3889 16 15.9889 16 15.3889C16 15.1889 15.9 14.8889 15.7 14.6889ZM2 7.38892C2 4.58892 4.2 2.38892 7 2.38892C9.8 2.38892 12 4.58892 12 7.38892C12 10.1889 9.8 12.3889 7 12.3889C4.2 12.3889 2 10.1889 2 7.38892Z" fill="black"/>
</svg>
