<svg xmlns="http://www.w3.org/2000/svg" width="160" height="160" fill="none"><path fill="#363636" d="M106.494 63.197h-1.515v-4.64c0-5.052-4.087-9.186-9.082-9.186H61.082C56.086 49.372 52 53.505 52 58.557v42.868c0 5.052 4.087 9.185 9.083 9.185h34.815c4.995 0 9.082-4.133 9.082-9.185V98.01h1.515c.415 0 .757-.344.757-.764V83.467c0-.421-.342-.766-.757-.766h-1.515v-8.788h1.515c.832 0 1.514-.688 1.514-1.531v-7.654c-.001-.842-.683-1.531-1.515-1.531Zm-20.412-3.109c2.926 0 5.299 2.398 5.299 5.358 0 2.96-2.373 5.358-5.299 5.358s-5.298-2.398-5.298-5.358c0-2.96 2.372-5.358 5.298-5.358Zm-15.137 0c2.925 0 5.298 2.398 5.298 5.358 0 2.96-2.373 5.358-5.298 5.358-2.926 0-5.298-2.398-5.298-5.358 0-2.96 2.372-5.358 5.298-5.358ZM57.297 80.397c0-2.959 2.371-5.358 5.298-5.358 2.926 0 5.298 2.399 5.298 5.358 0 2.959-2.373 5.358-5.298 5.358-2.927.001-5.298-2.399-5.298-5.358Zm13.648 19.497c-2.926 0-5.298-2.398-5.298-5.358 0-2.96 2.372-5.358 5.298-5.358 2.925 0 5.298 2.398 5.298 5.358 0 2.96-2.373 5.358-5.298 5.358Zm1.49-19.903c0-3.382 2.711-6.124 6.055-6.124s6.055 2.742 6.055 6.124c0 3.382-2.711 6.124-6.055 6.124-3.344-.001-6.055-2.742-6.055-6.124Zm13.647 19.903c-2.926 0-5.298-2.398-5.298-5.358 0-2.96 2.372-5.358 5.298-5.358s5.299 2.398 5.299 5.358c0 2.96-2.373 5.358-5.299 5.358Zm8.302-14.138c-2.927 0-5.298-2.399-5.298-5.358 0-2.959 2.371-5.358 5.298-5.358 2.926 0 5.298 2.399 5.298 5.358 0 2.958-2.372 5.358-5.298 5.358ZM61.646 46.31h33.687c.843 0 1.432-.681 1.306-1.514l-1.616-10.768s0-.001-.002-.002C94.771 32.362 93.189 31 91.506 31H65.474c-1.686 0-3.268 1.362-3.517 3.028l-1.615 10.767c-.125.833.461 1.515 1.304 1.515ZM95.333 113.671H61.646c-.843 0-1.429.683-1.304 1.516l1.615 10.767c.25 1.666 1.832 3.028 3.516 3.028h26.032c1.684 0 3.266-1.362 3.517-3.026v-.002l1.615-10.767c.128-.833-.461-1.516-1.304-1.516Z"/></svg>